<svg width="50" height="50" viewBox="0 0 50 50" fill="none" xmlns="http://www.w3.org/2000/svg">
<path d="M22.0833 26.4792C21.8881 26.2855 21.7331 26.0551 21.6273 25.8012C21.5215 25.5474 21.4671 25.275 21.4671 25C21.4671 24.725 21.5215 24.4527 21.6273 24.1988C21.7331 23.9449 21.8881 23.7145 22.0833 23.5209L31.6458 13.9792C31.8411 13.7855 31.9961 13.5551 32.1019 13.3012C32.2076 13.0474 32.2621 12.775 32.2621 12.5C32.2621 12.225 32.2076 11.9527 32.1019 11.6988C31.9961 11.4449 31.8411 11.2145 31.6458 11.0209C31.2555 10.6328 30.7275 10.415 30.1771 10.415C29.6267 10.415 29.0987 10.6328 28.7083 11.0209L19.1458 20.5834C17.9754 21.7552 17.318 23.3438 17.318 25C17.318 26.6563 17.9754 28.2448 19.1458 29.4167L28.7083 38.9792C29.0964 39.3641 29.6201 39.5811 30.1667 39.5834C30.4408 39.5849 30.7126 39.5324 30.9665 39.4287C31.2203 39.325 31.4512 39.1723 31.6458 38.9792C31.8411 38.7855 31.9961 38.5551 32.1019 38.3012C32.2076 38.0474 32.2621 37.7751 32.2621 37.5C32.2621 37.225 32.2076 36.9527 32.1019 36.6988C31.9961 36.445 31.8411 36.2145 31.6458 36.0209L22.0833 26.4792Z" fill="white"/>
</svg>
