<svg width="50" height="50" viewBox="0 0 50 50" fill="none" xmlns="http://www.w3.org/2000/svg">
<g clip-path="url(#clip0_55_228)">
<path d="M12.4417 46.4272C11.9863 46.4271 11.5435 46.2777 11.181 46.002C10.8186 45.7263 10.5565 45.3394 10.4348 44.9006C10.3131 44.4618 10.3385 43.9952 10.5072 43.5722C10.6759 43.1492 10.9785 42.7931 11.3687 42.5584C18.75 38.1251 18.75 28.6043 18.75 22.9168C18.75 21.2592 19.4085 19.6695 20.5806 18.4974C21.7527 17.3253 23.3424 16.6668 25 16.6668C26.6576 16.6668 28.2473 17.3253 29.4194 18.4974C30.5915 19.6695 31.25 21.2592 31.25 22.9168C31.25 23.4693 31.0305 23.9992 30.6398 24.3899C30.2491 24.7806 29.7192 25.0001 29.1667 25.0001C28.6141 25.0001 28.0842 24.7806 27.6935 24.3899C27.3028 23.9992 27.0833 23.4693 27.0833 22.9168C27.0833 22.3642 26.8638 21.8343 26.4731 21.4436C26.0824 21.0529 25.5525 20.8334 25 20.8334C24.4475 20.8334 23.9176 21.0529 23.5269 21.4436C23.1362 21.8343 22.9167 22.3642 22.9167 22.9168C22.9167 29.0564 22.9167 40.4876 13.5125 46.1314C13.1889 46.3251 12.8188 46.4273 12.4417 46.4272ZM22.7812 49.3876C27.5354 44.5959 30.3125 37.8584 31.0333 29.3439C31.0576 29.0707 31.0278 28.7955 30.9455 28.5339C30.8632 28.2723 30.73 28.0296 30.5537 27.8196C30.3774 27.6096 30.1613 27.4365 29.9179 27.3101C29.6746 27.1838 29.4086 27.1068 29.1354 27.0834C28.862 27.0554 28.5858 27.0827 28.3232 27.1636C28.0606 27.2446 27.8169 27.3776 27.6068 27.5547C27.3966 27.7318 27.2243 27.9494 27.1 28.1945C26.9757 28.4396 26.902 28.7072 26.8833 28.9814C26.2354 36.6001 23.9271 42.3147 19.825 46.4418C19.4355 46.8338 19.2176 47.3645 19.2194 47.9172C19.2211 48.4698 19.4424 48.9991 19.8344 49.3886C20.2264 49.7782 20.7571 49.996 21.3098 49.9943C21.8624 49.9925 22.3917 49.7713 22.7812 49.3793V49.3876ZM33.6146 49.0001C34.8783 46.9004 35.9307 44.6805 36.7562 42.373C36.9288 41.857 36.8927 41.2939 36.6555 40.8041C36.4182 40.3144 35.9988 39.9369 35.4869 39.7524C34.975 39.5678 34.4112 39.5909 33.9161 39.8167C33.421 40.0425 33.0339 40.453 32.8375 40.9605C32.104 43.0065 31.1703 44.9751 30.05 46.8376C29.908 47.0717 29.8135 47.3314 29.7719 47.602C29.7303 47.8725 29.7424 48.1487 29.8075 48.4146C29.8726 48.6805 29.9894 48.931 30.1513 49.1517C30.3132 49.3725 30.517 49.5592 30.751 49.7012C31.2237 49.9879 31.791 50.0752 32.328 49.9437C32.5939 49.8786 32.8444 49.7618 33.0651 49.5999C33.2859 49.438 33.4726 49.2342 33.6146 49.0001ZM38.5417 35.8147C39.3135 31.5603 39.6624 27.2399 39.5833 22.9168C39.5814 19.9653 38.6839 17.0839 37.0095 14.6534C35.3351 12.2228 32.9627 10.3575 30.2057 9.30394C27.4486 8.25039 24.4368 8.05819 21.5682 8.75273C18.6997 9.44727 16.1093 10.9959 14.1396 13.1939C13.9477 13.3959 13.7984 13.6345 13.7004 13.8953C13.6024 14.1561 13.5577 14.434 13.5689 14.7124C13.5802 14.9908 13.6472 15.2641 13.766 15.5162C13.8847 15.7682 14.0529 15.9939 14.2604 16.1799C14.4679 16.3658 14.7107 16.5082 14.9742 16.5987C15.2378 16.6891 15.5168 16.7258 15.7947 16.7065C16.0727 16.6872 16.344 16.6124 16.5925 16.4864C16.8411 16.3604 17.0618 16.1858 17.2417 15.973C18.6485 14.4028 20.4987 13.2964 22.5477 12.8C24.5968 12.3037 26.7482 12.4408 28.7176 13.1932C30.6871 13.9457 32.3818 15.278 33.5779 17.0141C34.7741 18.7503 35.4152 20.8085 35.4167 22.9168C35.4935 26.9726 35.1711 31.0262 34.4542 35.0189C34.349 35.5609 34.4632 36.1225 34.7718 36.5803C35.0804 37.0381 35.5581 37.3547 36.1 37.4605C36.2324 37.487 36.3671 37.5003 36.5021 37.5001C36.9846 37.4989 37.4518 37.3301 37.8238 37.0227C38.1958 36.7154 38.4495 36.2884 38.5417 35.8147ZM14.5833 22.9168C14.5827 22.3353 14.6308 21.7548 14.7271 21.1814C14.7893 20.9053 14.7946 20.6194 14.7427 20.3413C14.6908 20.0631 14.5828 19.7984 14.4252 19.5633C14.2676 19.3283 14.0638 19.1278 13.8262 18.9741C13.5886 18.8204 13.3221 18.7167 13.0431 18.6694C12.7641 18.6221 12.4784 18.6321 12.2034 18.6988C11.9284 18.7656 11.6699 18.8876 11.4436 19.0576C11.2173 19.2275 11.028 19.4418 10.8873 19.6873C10.7466 19.9328 10.6573 20.2044 10.625 20.4855C10.4875 21.2887 10.4178 22.1019 10.4167 22.9168C10.4167 32.5939 7.6125 37.5001 2.08333 37.5001C1.5308 37.5001 1.0009 37.7196 0.610194 38.1103C0.219493 38.501 0 39.0309 0 39.5834C0 40.136 0.219493 40.6659 0.610194 41.0566C1.0009 41.4473 1.5308 41.6668 2.08333 41.6668C10.1437 41.6668 14.5833 35.0001 14.5833 22.9168ZM43.125 48.7793C46.5535 40.6004 48.1875 31.7811 47.9167 22.9168C47.9263 19.4562 47.1423 16.0395 45.625 12.9293C45.5053 12.683 45.3383 12.4628 45.1335 12.2811C44.9287 12.0994 44.6901 11.9599 44.4313 11.8704C44.1726 11.7809 43.8987 11.7433 43.6255 11.7597C43.3522 11.776 43.0848 11.846 42.8385 11.9657C42.5923 12.0854 42.3721 12.2524 42.1904 12.4573C42.0087 12.6621 41.8691 12.9007 41.7797 13.1594C41.6902 13.4182 41.6526 13.692 41.6689 13.9653C41.6853 14.2386 41.7553 14.506 41.875 14.7522C43.1147 17.295 43.756 20.0878 43.75 22.9168C44.0122 31.185 42.5072 39.4141 39.3354 47.0543C39.2225 47.3038 39.1599 47.5731 39.1511 47.8468C39.1423 48.1205 39.1876 48.3932 39.2844 48.6494C39.3811 48.9056 39.5274 49.1402 39.7149 49.3398C39.9024 49.5394 40.1274 49.7001 40.3771 49.8126C40.6469 49.9367 40.9405 50.0007 41.2375 50.0001C41.6359 49.9984 42.0255 49.8825 42.36 49.6661C42.6946 49.4497 42.9601 49.142 43.125 48.7793ZM6.25 29.1668V22.9168C6.25551 17.9457 8.23273 13.1797 11.7478 9.66461C15.2629 6.1495 20.0289 4.17229 25 4.16677C29.0591 4.15325 33.0108 5.47048 36.25 7.91677C36.692 8.24829 37.2476 8.39064 37.7946 8.3125C38.3416 8.23436 38.8351 7.94213 39.1667 7.50011C39.4982 7.05808 39.6405 6.50246 39.5624 5.95548C39.4843 5.4085 39.192 4.91496 38.75 4.58344C34.7904 1.59474 29.9609 -0.0150725 25 0.000106363C18.9243 0.00727401 13.0995 2.424 8.80339 6.72016C4.50723 11.0163 2.0905 16.8411 2.08333 22.9168V29.1668C2.08333 29.7193 2.30283 30.2492 2.69353 30.6399C3.08423 31.0306 3.61413 31.2501 4.16667 31.2501C4.7192 31.2501 5.2491 31.0306 5.63981 30.6399C6.03051 30.2492 6.25 29.7193 6.25 29.1668Z" fill="white"/>
</g>
<defs>
<clipPath id="clip0_55_228">
<rect width="50" height="50" fill="white"/>
</clipPath>
</defs>
</svg>
