<svg width="50" height="50" viewBox="0 0 50 50" fill="none" xmlns="http://www.w3.org/2000/svg">
<path d="M32.0833 20.5834L22.5208 11.0209C22.1305 10.6328 21.6024 10.415 21.052 10.415C20.5017 10.415 19.9736 10.6328 19.5833 11.0209C19.388 11.2145 19.233 11.4449 19.1273 11.6988C19.0215 11.9527 18.967 12.225 18.967 12.5C18.967 12.775 19.0215 13.0474 19.1273 13.3012C19.233 13.5551 19.388 13.7855 19.5833 13.9792L29.1666 23.5209C29.3619 23.7145 29.5169 23.9449 29.6226 24.1988C29.7284 24.4527 29.7829 24.725 29.7829 25C29.7829 25.275 29.7284 25.5474 29.6226 25.8012C29.5169 26.0551 29.3619 26.2855 29.1666 26.4792L19.5833 36.0209C19.191 36.4104 18.9695 36.9398 18.9675 37.4927C18.9656 38.0455 19.1833 38.5765 19.5729 38.9688C19.9624 39.3611 20.4918 39.5826 21.0447 39.5845C21.5975 39.5865 22.1285 39.3687 22.5208 38.9792L32.0833 29.4167C33.2537 28.2448 33.9111 26.6563 33.9111 25C33.9111 23.3438 33.2537 21.7552 32.0833 20.5834Z" fill="white"/>
</svg>
