<svg width="50" height="50" viewBox="0 0 50 50" fill="none" xmlns="http://www.w3.org/2000/svg">
<path d="M50 41.6667V43.75C50 44.9021 49.0687 45.8333 47.9167 45.8333C46.7646 45.8333 45.8333 44.9021 45.8333 43.75V41.6667C45.8333 40.5167 44.9 39.5833 43.75 39.5833H27.0833V43.75C27.0833 44.9021 26.15 45.8333 25 45.8333C23.85 45.8333 22.9167 44.9021 22.9167 43.75V39.5833H6.25C5.10208 39.5833 4.16667 40.5167 4.16667 41.6667V43.75C4.16667 44.9021 3.23333 45.8333 2.08333 45.8333C0.933333 45.8333 0 44.9021 0 43.75V41.6667C0 38.2208 2.80417 35.4167 6.25 35.4167H43.75C47.1958 35.4167 50 38.2208 50 41.6667ZM0 25V12.5C0 9.05417 2.80417 6.25 6.25 6.25H18.75C22.1958 6.25 25 9.05417 25 12.5V25C25 28.4458 22.1958 31.25 18.75 31.25H6.25C2.80417 31.25 0 28.4458 0 25ZM4.16667 25C4.16667 26.15 5.10208 27.0833 6.25 27.0833H18.75C19.8979 27.0833 20.8333 26.15 20.8333 25V12.5C20.8333 11.35 19.8979 10.4167 18.75 10.4167H6.25C5.10208 10.4167 4.16667 11.35 4.16667 12.5V25ZM50 16.6667V25C50 28.4458 47.1958 31.25 43.75 31.25H35.4167C31.9708 31.25 29.1667 28.4458 29.1667 25V16.6667C29.1667 13.2208 31.9708 10.4167 35.4167 10.4167H43.75C47.1958 10.4167 50 13.2208 50 16.6667ZM45.8333 16.6667C45.8333 15.5167 44.9 14.5833 43.75 14.5833H35.4167C34.2667 14.5833 33.3333 15.5167 33.3333 16.6667V25C33.3333 26.15 34.2667 27.0833 35.4167 27.0833H43.75C44.9 27.0833 45.8333 26.15 45.8333 25V16.6667Z" fill="white"/>
</svg>
