<svg width="50" height="50" viewBox="0 0 50 50" fill="none" xmlns="http://www.w3.org/2000/svg">
<g clip-path="url(#clip0_138_819)">
<path d="M49.3891 0.609972C48.9985 0.219407 48.4687 0 47.9162 0C47.3638 0 46.834 0.219407 46.4433 0.609972L24.9996 22.0537L3.55581 0.609972C3.16512 0.219407 2.63531 0 2.08289 0C1.53046 0 1.00065 0.219407 0.609972 0.609972C0.219407 1.00065 0 1.53046 0 2.08289C0 2.63531 0.219407 3.16512 0.609972 3.55581L22.0537 24.9996L0.609972 46.4433C0.219407 46.834 0 47.3638 0 47.9162C0 48.4687 0.219407 48.9985 0.609972 49.3891C1.00065 49.7797 1.53046 49.9991 2.08289 49.9991C2.63531 49.9991 3.16512 49.7797 3.55581 49.3891L24.9996 27.9454L46.4433 49.3891C46.834 49.7797 47.3638 49.9991 47.9162 49.9991C48.4687 49.9991 48.9985 49.7797 49.3891 49.3891C49.7797 48.9985 49.9991 48.4687 49.9991 47.9162C49.9991 47.3638 49.7797 46.834 49.3891 46.4433L27.9454 24.9996L49.3891 3.55581C49.7797 3.16512 49.9991 2.63531 49.9991 2.08289C49.9991 1.53046 49.7797 1.00065 49.3891 0.609972Z" fill="white"/>
</g>
<defs>
<clipPath id="clip0_138_819">
<rect width="50" height="50" fill="white"/>
</clipPath>
</defs>
</svg>
