<svg width="50" height="50" viewBox="0 0 50 50" fill="none" xmlns="http://www.w3.org/2000/svg">
<g clip-path="url(#clip0_132_789)">
<path d="M47.9167 22.917H2.08333C0.93274 22.917 0 23.8497 0 25.0003C0 26.1509 0.93274 27.0837 2.08333 27.0837H47.9167C49.0673 27.0837 50 26.1509 50 25.0003C50 23.8497 49.0673 22.917 47.9167 22.917Z" fill="white"/>
<path d="M47.9167 8.33301H2.08333C0.93274 8.33301 0 9.26575 0 10.4163C0 11.5669 0.93274 12.4997 2.08333 12.4997H47.9167C49.0673 12.4997 50 11.5669 50 10.4163C50 9.26575 49.0673 8.33301 47.9167 8.33301Z" fill="white"/>
<path d="M47.9167 37.5H2.08333C0.93274 37.5 0 38.4327 0 39.5833C0 40.7339 0.93274 41.6667 2.08333 41.6667H47.9167C49.0673 41.6667 50 40.7339 50 39.5833C50 38.4327 49.0673 37.5 47.9167 37.5Z" fill="white"/>
</g>
<defs>
<clipPath id="clip0_132_789">
<rect width="50" height="50" fill="white"/>
</clipPath>
</defs>
</svg>
