<svg width="50" height="50" viewBox="0 0 50 50" fill="none" xmlns="http://www.w3.org/2000/svg">
<g clip-path="url(#clip0_55_226)">
<path d="M35.4167 27.0833H22.9167V14.5833C22.9167 11.1375 20.1125 8.33333 16.6667 8.33333H8.33333C3.7375 8.33333 0 12.0708 0 16.6667V41.6667C0 46.2625 3.7375 50 8.33333 50H33.3333C37.9292 50 41.6667 46.2625 41.6667 41.6667V33.3333C41.6667 29.8875 38.8625 27.0833 35.4167 27.0833ZM4.16667 16.6667C4.16667 14.3687 6.03542 12.5 8.33333 12.5H16.6667C17.8146 12.5 18.75 13.4333 18.75 14.5833V27.0833H13.9896C14.3604 25.8604 14.5833 24.6417 14.5833 23.9583C14.5833 22.2333 13.1833 20.8333 11.4583 20.8333C9.73333 20.8333 8.33333 22.2333 8.33333 23.9583C8.33333 24.6417 8.55417 25.8604 8.92708 27.0833H4.16667V16.6667ZM18.75 45.8333H8.33333C6.03542 45.8333 4.16667 43.9646 4.16667 41.6667V31.25H18.75V36.0104C17.5271 35.6396 16.3083 35.4167 15.625 35.4167C13.9 35.4167 12.5 36.8167 12.5 38.5417C12.5 40.2667 13.9 41.6667 15.625 41.6667C16.3083 41.6667 17.5271 41.4458 18.75 41.0729V45.8333ZM37.5 41.6667C37.5 43.9646 35.6312 45.8333 33.3333 45.8333H22.9167V31.25H27.6771C27.3062 32.4729 27.0833 33.6917 27.0833 34.375C27.0833 36.1 28.4833 37.5 30.2083 37.5C31.9333 37.5 33.3333 36.1 33.3333 34.375C33.3333 33.6917 33.1125 32.4729 32.7396 31.25H35.4167C36.5646 31.25 37.5 32.1833 37.5 33.3333V41.6667ZM50 8.33333V15.625C50 17.35 48.6 18.75 46.875 18.75H43.1562C43.5271 19.9729 43.75 21.1917 43.75 21.875C43.75 23.6 42.35 25 40.625 25C38.9 25 37.5 23.6 37.5 21.875C37.5 21.1917 37.7208 19.9729 38.0938 18.75H34.375C32.65 18.75 31.25 17.35 31.25 15.625V11.9062C32.4729 12.2771 33.6917 12.5 34.375 12.5C36.1 12.5 37.5 11.1 37.5 9.375C37.5 7.65 36.1 6.25 34.375 6.25C33.6917 6.25 32.4729 6.47083 31.25 6.84375V3.125C31.25 1.4 32.65 0 34.375 0H41.6667C46.2687 0 50 3.73125 50 8.33333Z" fill="white"/>
</g>
<defs>
<clipPath id="clip0_55_226">
<rect width="50" height="50" fill="white"/>
</clipPath>
</defs>
</svg>
