<svg width="50" height="50" viewBox="0 0 50 50" fill="none" xmlns="http://www.w3.org/2000/svg">
<g clip-path="url(#clip0_55_227)">
<path d="M50 18.75C50.0048 17.6031 49.6938 16.477 49.1012 15.495C48.5087 14.513 47.6573 13.713 46.6404 13.1826C45.6235 12.6522 44.4803 12.4119 43.3359 12.4879C42.1915 12.5639 41.09 12.9533 40.1522 13.6136C39.2144 14.2738 38.4763 15.1793 38.0188 16.2311C37.5613 17.2828 37.402 18.4401 37.5584 19.5763C37.7148 20.7125 38.1808 21.7838 38.9055 22.6728C39.6301 23.5619 40.5853 24.2343 41.6667 24.6167V33.3333C41.6667 36.6485 40.3497 39.828 38.0055 42.1722C35.6613 44.5164 32.4819 45.8333 29.1667 45.8333C25.8515 45.8333 22.672 44.5164 20.3278 42.1722C17.9836 39.828 16.6667 36.6485 16.6667 33.3333V33.1667C20.1335 32.6637 23.3038 30.9305 25.5987 28.2838C27.8936 25.637 29.16 22.2531 29.1667 18.75V10.4167C29.1634 7.65501 28.0648 5.00741 26.112 3.05462C24.1593 1.10184 21.5117 0.00330804 18.75 0C18.1975 0 17.6676 0.219493 17.2769 0.610194C16.8862 1.0009 16.6667 1.5308 16.6667 2.08333C16.6667 2.63587 16.8862 3.16577 17.2769 3.55647C17.6676 3.94717 18.1975 4.16667 18.75 4.16667C20.4076 4.16667 21.9973 4.82515 23.1694 5.99725C24.3415 7.16935 25 8.75906 25 10.4167V18.75C25 21.5127 23.9025 24.1622 21.949 26.1157C19.9955 28.0692 17.346 29.1667 14.5833 29.1667C11.8207 29.1667 9.17114 28.0692 7.21764 26.1157C5.26413 24.1622 4.16667 21.5127 4.16667 18.75V10.4167C4.16667 8.75906 4.82515 7.16935 5.99725 5.99725C7.16935 4.82515 8.75906 4.16667 10.4167 4.16667C10.9692 4.16667 11.4991 3.94717 11.8898 3.55647C12.2805 3.16577 12.5 2.63587 12.5 2.08333C12.5 1.5308 12.2805 1.0009 11.8898 0.610194C11.4991 0.219493 10.9692 0 10.4167 0C7.65501 0.00330804 5.00741 1.10184 3.05463 3.05462C1.10184 5.00741 0.00330804 7.65501 0 10.4167L0 18.75C0.0066999 22.2531 1.27311 25.637 3.568 28.2838C5.86289 30.9305 9.03317 32.6637 12.5 33.1667V33.3333C12.5 37.7536 14.2559 41.9928 17.3816 45.1184C20.5072 48.2441 24.7464 50 29.1667 50C33.5869 50 37.8262 48.2441 40.9518 45.1184C44.0774 41.9928 45.8333 37.7536 45.8333 33.3333V24.6167C47.0477 24.1873 48.0998 23.3933 48.8457 22.3431C49.5915 21.293 49.9947 20.038 50 18.75Z" fill="white"/>
</g>
<defs>
<clipPath id="clip0_55_227">
<rect width="50" height="50" fill="white"/>
</clipPath>
</defs>
</svg>
